<svg width="780" height="779" xmlns="http://www.w3.org/2000/svg" xmlns:xlink="http://www.w3.org/1999/xlink" xml:space="preserve" overflow="hidden"><defs><clipPath id="clip0"><path d="M2858 1195 3202 1195 3202 1313.52 3089.52 1313.52 3089.52 1419.48 3202 1419.48 3202 1538 2858 1538Z" fill-rule="evenodd" clip-rule="evenodd"/></clipPath></defs><g transform="translate(-2640 -1005)"><path d="M2770.5 1246.04C2770.5 1169.53 2832.53 1107.5 2909.04 1107.5L3151.96 1107.5C3228.47 1107.5 3290.5 1169.53 3290.5 1246.04L3290.5 1487.96C3290.5 1564.48 3228.47 1626.5 3151.96 1626.5L2909.04 1626.5C2832.53 1626.5 2770.5 1564.48 2770.5 1487.96Z" stroke="#50605A" stroke-width="55" stroke-miterlimit="8" fill="none" fill-rule="evenodd"/><g clip-path="url(#clip0)"><g><g><path d="M1996.26 460.423C1996.26 423.986 2025.8 394.45 2062.23 394.45L2218.41 394.45C2254.84 394.45 2284.38 423.986 2284.38 460.423L2284.38 616.597C2284.38 653.031 2254.84 682.57 2218.41 682.57L2062.23 682.57C2025.8 682.57 1996.26 653.031 1996.26 616.597Z" stroke="#50605A" stroke-width="54.88" stroke-miterlimit="8" fill="none" fill-rule="evenodd" transform="matrix(1.00292 0 0 1 883.439 827.99)"/></g></g></g><path d="M0 126 109.726 0 211 0 101.274 126Z" fill="#50605A" fill-rule="evenodd" transform="matrix(-1 0 0 1 3327 1616)"/></g></svg>