<svg width="779" height="779" xmlns="http://www.w3.org/2000/svg" xmlns:xlink="http://www.w3.org/1999/xlink" xml:space="preserve" overflow="hidden"><defs><clipPath id="clip0"><path d="M3630.56 995.438 3974.68 995.438 3974.68 1114.22 3862.15 1114.22 3862.15 1220.4 3974.68 1220.4 3974.68 1339.19 3630.56 1339.19Z" fill-rule="evenodd" clip-rule="evenodd"/></clipPath></defs><g transform="translate(-3420 -805)"><g><g><g><path d="M2657.19 1028.86C2657.19 952.346 2719.22 890.312 2795.74 890.312L3037.7 890.312C3114.22 890.312 3176.25 952.346 3176.25 1028.86L3176.25 1270.82C3176.25 1347.34 3114.22 1409.38 3037.7 1409.38L2795.74 1409.38C2719.22 1409.38 2657.19 1347.34 2657.19 1270.82Z" stroke="#EBF1ED" stroke-width="55" stroke-miterlimit="8" fill="none" fill-rule="evenodd" transform="matrix(1.00107 0 0 1 884.5 19.1876)"/><g clip-path="url(#clip0)"><path d="M2770.62 1069.87C2770.62 1033.35 2800.23 1003.75 2836.74 1003.75L2993.26 1003.75C3029.77 1003.75 3059.38 1033.35 3059.38 1069.87L3059.38 1226.38C3059.38 1262.9 3029.77 1292.5 2993.26 1292.5L2836.74 1292.5C2800.23 1292.5 2770.62 1262.9 2770.62 1226.38Z" stroke="#EBF1ED" stroke-width="55" stroke-miterlimit="8" fill="none" fill-rule="evenodd" transform="matrix(1.00107 0 0 1 884.5 19.1876)"/></g><path d="M0 123.75 107.766 0 209.688 0 101.921 123.75Z" fill="#EBF1ED" fill-rule="evenodd" transform="matrix(-1.00107 0 0 1 4102 1418.25)"/></g></g></g></g></svg>